<mxfile host="app.diagrams.net" modified="2023-11-14T15:41:33.707Z" agent="Mozilla/5.0 (Windows NT 10.0; Win64; x64) AppleWebKit/537.36 (KHTML, like Gecko) Chrome/119.0.0.0 Safari/537.36" etag="MQR_r62UBT0eniKPiolp" version="22.1.1" type="device">
  <diagram id="C5RBs43oDa-KdzZeNtuy" name="Page-1">
    <mxGraphModel dx="3218" dy="2266" grid="1" gridSize="10" guides="1" tooltips="1" connect="1" arrows="1" fold="1" page="1" pageScale="1" pageWidth="827" pageHeight="1169" math="0" shadow="0">
      <root>
        <mxCell id="WIyWlLk6GJQsqaUBKTNV-0" />
        <mxCell id="WIyWlLk6GJQsqaUBKTNV-1" parent="WIyWlLk6GJQsqaUBKTNV-0" />
        <mxCell id="JFg_Z9QKX0pmDsPN8sRP-20" style="edgeStyle=orthogonalEdgeStyle;rounded=0;orthogonalLoop=1;jettySize=auto;html=1;" parent="WIyWlLk6GJQsqaUBKTNV-1" source="zkfFHV4jXpPFQw0GAbJ--0" target="JFg_Z9QKX0pmDsPN8sRP-19" edge="1">
          <mxGeometry relative="1" as="geometry" />
        </mxCell>
        <mxCell id="zkfFHV4jXpPFQw0GAbJ--0" value="Admin" style="swimlane;fontStyle=2;align=center;verticalAlign=top;childLayout=stackLayout;horizontal=1;startSize=26;horizontalStack=0;resizeParent=1;resizeLast=0;collapsible=1;marginBottom=0;rounded=0;shadow=0;strokeWidth=1;" parent="WIyWlLk6GJQsqaUBKTNV-1" vertex="1">
          <mxGeometry x="670" y="290" width="240" height="262" as="geometry">
            <mxRectangle x="230" y="140" width="160" height="26" as="alternateBounds" />
          </mxGeometry>
        </mxCell>
        <mxCell id="zkfFHV4jXpPFQw0GAbJ--4" value="" style="line;html=1;strokeWidth=1;align=left;verticalAlign=middle;spacingTop=-1;spacingLeft=3;spacingRight=3;rotatable=0;labelPosition=right;points=[];portConstraint=eastwest;" parent="zkfFHV4jXpPFQw0GAbJ--0" vertex="1">
          <mxGeometry y="26" width="240" height="8" as="geometry" />
        </mxCell>
        <mxCell id="zkfFHV4jXpPFQw0GAbJ--5" value="+ addAppointment( int id): String&#xa;+ appointmentDel( int id): String&#xa;+ UserDel( int id): String&#xa;+ addArticle( int id): String&#xa;+ modArticle( int id): String&#xa;+ delArticle( int id): String&#xa;+ addLesson( int id): String&#xa;+ modLesson( int id): String&#xa;+ delLesson( int id): String&#xa;+ addSurvey( int id): String&#xa;+ delSurvey( int id): String" style="text;align=left;verticalAlign=top;spacingLeft=4;spacingRight=4;overflow=hidden;rotatable=0;points=[[0,0.5],[1,0.5]];portConstraint=eastwest;" parent="zkfFHV4jXpPFQw0GAbJ--0" vertex="1">
          <mxGeometry y="34" width="240" height="228" as="geometry" />
        </mxCell>
        <mxCell id="zkfFHV4jXpPFQw0GAbJ--6" value="RegisteredUser" style="swimlane;fontStyle=0;align=center;verticalAlign=top;childLayout=stackLayout;horizontal=1;startSize=26;horizontalStack=0;resizeParent=1;resizeLast=0;collapsible=1;marginBottom=0;rounded=0;shadow=0;strokeWidth=1;" parent="WIyWlLk6GJQsqaUBKTNV-1" vertex="1">
          <mxGeometry x="30" y="330" width="210" height="140" as="geometry">
            <mxRectangle x="130" y="380" width="160" height="26" as="alternateBounds" />
          </mxGeometry>
        </mxCell>
        <mxCell id="zkfFHV4jXpPFQw0GAbJ--9" value="" style="line;html=1;strokeWidth=1;align=left;verticalAlign=middle;spacingTop=-1;spacingLeft=3;spacingRight=3;rotatable=0;labelPosition=right;points=[];portConstraint=eastwest;" parent="zkfFHV4jXpPFQw0GAbJ--6" vertex="1">
          <mxGeometry y="26" width="210" height="8" as="geometry" />
        </mxCell>
        <mxCell id="zkfFHV4jXpPFQw0GAbJ--10" value="+ appointmentBooking( int id): String&#xa;+ appointmentDel( int id): String&#xa;+ userDel( int id): String&#xa;+ userMod( int id): String" style="text;align=left;verticalAlign=top;spacingLeft=4;spacingRight=4;overflow=hidden;rotatable=0;points=[[0,0.5],[1,0.5]];portConstraint=eastwest;fontStyle=4" parent="zkfFHV4jXpPFQw0GAbJ--6" vertex="1">
          <mxGeometry y="34" width="210" height="106" as="geometry" />
        </mxCell>
        <mxCell id="zkfFHV4jXpPFQw0GAbJ--17" value="Article" style="swimlane;fontStyle=0;align=center;verticalAlign=top;childLayout=stackLayout;horizontal=1;startSize=26;horizontalStack=0;resizeParent=1;resizeLast=0;collapsible=1;marginBottom=0;rounded=0;shadow=0;strokeWidth=1;" parent="WIyWlLk6GJQsqaUBKTNV-1" vertex="1">
          <mxGeometry x="1000" y="380" width="150" height="180" as="geometry">
            <mxRectangle x="550" y="140" width="160" height="26" as="alternateBounds" />
          </mxGeometry>
        </mxCell>
        <mxCell id="zkfFHV4jXpPFQw0GAbJ--23" value="" style="line;html=1;strokeWidth=1;align=left;verticalAlign=middle;spacingTop=-1;spacingLeft=3;spacingRight=3;rotatable=0;labelPosition=right;points=[];portConstraint=eastwest;" parent="zkfFHV4jXpPFQw0GAbJ--17" vertex="1">
          <mxGeometry y="26" width="150" height="8" as="geometry" />
        </mxCell>
        <mxCell id="zkfFHV4jXpPFQw0GAbJ--24" value="- ID: int&#xa;+ email: String&#xa;+ password: String" style="text;align=left;verticalAlign=top;spacingLeft=4;spacingRight=4;overflow=hidden;rotatable=0;points=[[0,0.5],[1,0.5]];portConstraint=eastwest;" parent="zkfFHV4jXpPFQw0GAbJ--17" vertex="1">
          <mxGeometry y="34" width="150" height="146" as="geometry" />
        </mxCell>
        <mxCell id="zkfFHV4jXpPFQw0GAbJ--26" value="" style="endArrow=open;shadow=0;strokeWidth=1;rounded=0;endFill=1;edgeStyle=elbowEdgeStyle;elbow=vertical;" parent="WIyWlLk6GJQsqaUBKTNV-1" source="zkfFHV4jXpPFQw0GAbJ--0" target="zkfFHV4jXpPFQw0GAbJ--17" edge="1">
          <mxGeometry x="0.5" y="41" relative="1" as="geometry">
            <mxPoint x="690" y="442" as="sourcePoint" />
            <mxPoint x="850" y="442" as="targetPoint" />
            <mxPoint x="-40" y="32" as="offset" />
          </mxGeometry>
        </mxCell>
        <mxCell id="zkfFHV4jXpPFQw0GAbJ--27" value="" style="resizable=0;align=left;verticalAlign=bottom;labelBackgroundColor=none;fontSize=12;" parent="zkfFHV4jXpPFQw0GAbJ--26" connectable="0" vertex="1">
          <mxGeometry x="-1" relative="1" as="geometry">
            <mxPoint y="4" as="offset" />
          </mxGeometry>
        </mxCell>
        <mxCell id="zkfFHV4jXpPFQw0GAbJ--28" value="1" style="resizable=0;align=right;verticalAlign=bottom;labelBackgroundColor=none;fontSize=12;" parent="zkfFHV4jXpPFQw0GAbJ--26" connectable="0" vertex="1">
          <mxGeometry x="1" relative="1" as="geometry">
            <mxPoint x="-7" y="4" as="offset" />
          </mxGeometry>
        </mxCell>
        <mxCell id="JFg_Z9QKX0pmDsPN8sRP-0" value="User" style="swimlane;fontStyle=1;align=center;verticalAlign=top;childLayout=stackLayout;horizontal=1;startSize=26;horizontalStack=0;resizeParent=1;resizeParentMax=0;resizeLast=0;collapsible=1;marginBottom=0;whiteSpace=wrap;html=1;" parent="WIyWlLk6GJQsqaUBKTNV-1" vertex="1">
          <mxGeometry x="370" y="230" width="160" height="450" as="geometry" />
        </mxCell>
        <mxCell id="JFg_Z9QKX0pmDsPN8sRP-1" value="&lt;p&gt;- ID: int&lt;/p&gt;&lt;p&gt;&lt;span style=&quot;color: rgb(0, 0, 29); font-size: 10pt; font-family: noto_regular&quot;&gt;+ username: String&lt;/span&gt;&lt;/p&gt;&lt;p&gt;&lt;span style=&quot;color: rgb(0, 0, 29); font-size: 10pt; font-family: noto_regular&quot;&gt;+ email: String&lt;/span&gt;&lt;/p&gt;&lt;p&gt;&lt;span style=&quot;color: rgb(0, 0, 29); font-size: 10pt; font-family: noto_regular&quot;&gt;+ passwordd: String&lt;/span&gt;&lt;/p&gt;" style="text;strokeColor=none;fillColor=none;align=left;verticalAlign=top;spacingLeft=4;spacingRight=4;overflow=hidden;rotatable=0;points=[[0,0.5],[1,0.5]];portConstraint=eastwest;whiteSpace=wrap;html=1;" parent="JFg_Z9QKX0pmDsPN8sRP-0" vertex="1">
          <mxGeometry y="26" width="160" height="134" as="geometry" />
        </mxCell>
        <mxCell id="JFg_Z9QKX0pmDsPN8sRP-2" value="" style="line;strokeWidth=1;fillColor=none;align=left;verticalAlign=middle;spacingTop=-1;spacingLeft=3;spacingRight=3;rotatable=0;labelPosition=right;points=[];portConstraint=eastwest;strokeColor=inherit;" parent="JFg_Z9QKX0pmDsPN8sRP-0" vertex="1">
          <mxGeometry y="160" width="160" height="8" as="geometry" />
        </mxCell>
        <mxCell id="JFg_Z9QKX0pmDsPN8sRP-3" value="&lt;p&gt;+ get_id(): int&lt;/p&gt;&lt;p&gt;&lt;span style=&quot;color: rgb(75, 75, 75); font-size: 10pt; font-family: noto_regular&quot;&gt;+ set_id(): void&lt;/span&gt;&lt;/p&gt;&lt;p&gt;&lt;span style=&quot;color: rgb(75, 75, 75); font-size: 10pt; font-family: noto_regular&quot;&gt;+ get_username(): String&lt;/span&gt;&lt;/p&gt;&lt;p&gt;&lt;span style=&quot;color: rgb(75, 75, 75); font-size: 10pt; font-family: noto_regular&quot;&gt;+ set_username(): void&lt;/span&gt;&lt;/p&gt;&lt;p&gt;&lt;span style=&quot;color: rgb(75, 75, 75); font-size: 10pt; font-family: noto_regular&quot;&gt;+ get_email(): String&lt;/span&gt;&lt;/p&gt;&lt;p&gt;&lt;span style=&quot;color: rgb(75, 75, 75); font-size: 10pt; font-family: noto_regular&quot;&gt;+ set_email(): void&lt;/span&gt;&lt;/p&gt;&lt;p&gt;&lt;span style=&quot;color: rgb(75, 75, 75); font-size: 10pt; font-family: noto_regular&quot;&gt;+ get_password(): String&lt;/span&gt;&lt;/p&gt;&lt;p&gt;&lt;span style=&quot;color: rgb(75, 75, 75); font-size: 10pt; font-family: noto_regular&quot;&gt;+ set_password(): void&lt;/span&gt;&lt;/p&gt;&lt;p&gt;&lt;/p&gt;" style="text;strokeColor=none;fillColor=none;align=left;verticalAlign=top;spacingLeft=4;spacingRight=4;overflow=hidden;rotatable=0;points=[[0,0.5],[1,0.5]];portConstraint=eastwest;whiteSpace=wrap;html=1;" parent="JFg_Z9QKX0pmDsPN8sRP-0" vertex="1">
          <mxGeometry y="168" width="160" height="282" as="geometry" />
        </mxCell>
        <mxCell id="JFg_Z9QKX0pmDsPN8sRP-6" value="Extends" style="endArrow=block;endSize=16;endFill=0;html=1;rounded=0;" parent="WIyWlLk6GJQsqaUBKTNV-1" source="zkfFHV4jXpPFQw0GAbJ--0" target="JFg_Z9QKX0pmDsPN8sRP-0" edge="1">
          <mxGeometry width="160" relative="1" as="geometry">
            <mxPoint x="330" y="400" as="sourcePoint" />
            <mxPoint x="490" y="400" as="targetPoint" />
          </mxGeometry>
        </mxCell>
        <mxCell id="JFg_Z9QKX0pmDsPN8sRP-7" value="Extends" style="endArrow=block;endSize=16;endFill=0;html=1;rounded=0;" parent="WIyWlLk6GJQsqaUBKTNV-1" source="zkfFHV4jXpPFQw0GAbJ--10" target="JFg_Z9QKX0pmDsPN8sRP-0" edge="1">
          <mxGeometry width="160" relative="1" as="geometry">
            <mxPoint x="330" y="400" as="sourcePoint" />
            <mxPoint x="490" y="400" as="targetPoint" />
          </mxGeometry>
        </mxCell>
        <mxCell id="JFg_Z9QKX0pmDsPN8sRP-8" value="Lesson" style="swimlane;fontStyle=1;align=center;verticalAlign=top;childLayout=stackLayout;horizontal=1;startSize=26;horizontalStack=0;resizeParent=1;resizeParentMax=0;resizeLast=0;collapsible=1;marginBottom=0;whiteSpace=wrap;html=1;" parent="WIyWlLk6GJQsqaUBKTNV-1" vertex="1">
          <mxGeometry x="680" y="720" width="180" height="330" as="geometry" />
        </mxCell>
        <mxCell id="JFg_Z9QKX0pmDsPN8sRP-9" value="&lt;p dir=&quot;ltr&quot;&gt;- LessonID: int&lt;/p&gt;&lt;p&gt;&lt;span style=&quot;color: rgb(0, 0, 29); font-size: 10pt; font-family: noto_regular&quot;&gt;+ lessonName: String&lt;/span&gt;&lt;/p&gt;&lt;p&gt;&lt;span style=&quot;color: rgb(0, 0, 29); font-size: 10pt; font-family: noto_regular&quot;&gt;+ content: String&lt;/span&gt;&lt;/p&gt;" style="text;strokeColor=none;fillColor=none;align=left;verticalAlign=top;spacingLeft=4;spacingRight=4;overflow=hidden;rotatable=0;points=[[0,0.5],[1,0.5]];portConstraint=eastwest;whiteSpace=wrap;html=1;" parent="JFg_Z9QKX0pmDsPN8sRP-8" vertex="1">
          <mxGeometry y="26" width="180" height="104" as="geometry" />
        </mxCell>
        <mxCell id="JFg_Z9QKX0pmDsPN8sRP-10" value="" style="line;strokeWidth=1;fillColor=none;align=left;verticalAlign=middle;spacingTop=-1;spacingLeft=3;spacingRight=3;rotatable=0;labelPosition=right;points=[];portConstraint=eastwest;strokeColor=inherit;" parent="JFg_Z9QKX0pmDsPN8sRP-8" vertex="1">
          <mxGeometry y="130" width="180" height="8" as="geometry" />
        </mxCell>
        <mxCell id="JFg_Z9QKX0pmDsPN8sRP-11" value="&lt;p&gt;get_id(): int&lt;/p&gt;&lt;p&gt;&lt;span style=&quot;color: #4b4b4b; font-size: 10pt; font-family: noto_regular&quot;&gt;set_id(): void&lt;/span&gt;&lt;/p&gt;&lt;p&gt;&lt;span style=&quot;color: #4b4b4b; font-size: 10pt; font-family: noto_regular&quot;&gt;get_lessonName(): String&lt;/span&gt;&lt;/p&gt;&lt;p&gt;&lt;span style=&quot;color: #4b4b4b; font-size: 10pt; font-family: noto_regular&quot;&gt;set_lessonName(): void&lt;/span&gt;&lt;/p&gt;&lt;p&gt;&lt;span style=&quot;color: rgb(75, 75, 75); font-size: 10pt; font-family: noto_regular&quot;&gt;get_content(): String&lt;/span&gt;&lt;/p&gt;&lt;p&gt;&lt;span style=&quot;color: rgb(75, 75, 75); font-size: 10pt; font-family: noto_regular&quot;&gt;set_content(): void&lt;/span&gt;&lt;/p&gt;" style="text;strokeColor=none;fillColor=none;align=left;verticalAlign=top;spacingLeft=4;spacingRight=4;overflow=hidden;rotatable=0;points=[[0,0.5],[1,0.5]];portConstraint=eastwest;whiteSpace=wrap;html=1;" parent="JFg_Z9QKX0pmDsPN8sRP-8" vertex="1">
          <mxGeometry y="138" width="180" height="192" as="geometry" />
        </mxCell>
        <mxCell id="JFg_Z9QKX0pmDsPN8sRP-15" style="edgeStyle=orthogonalEdgeStyle;rounded=0;orthogonalLoop=1;jettySize=auto;html=1;" parent="WIyWlLk6GJQsqaUBKTNV-1" source="zkfFHV4jXpPFQw0GAbJ--0" target="JFg_Z9QKX0pmDsPN8sRP-8" edge="1">
          <mxGeometry relative="1" as="geometry">
            <Array as="points">
              <mxPoint x="790" y="560" />
              <mxPoint x="780" y="560" />
              <mxPoint x="780" y="636" />
              <mxPoint x="770" y="636" />
            </Array>
          </mxGeometry>
        </mxCell>
        <mxCell id="JFg_Z9QKX0pmDsPN8sRP-50" value="Text" style="edgeLabel;html=1;align=center;verticalAlign=middle;resizable=0;points=[];" parent="JFg_Z9QKX0pmDsPN8sRP-15" vertex="1" connectable="0">
          <mxGeometry x="-0.4" y="-5" relative="1" as="geometry">
            <mxPoint y="-1" as="offset" />
          </mxGeometry>
        </mxCell>
        <mxCell id="JFg_Z9QKX0pmDsPN8sRP-16" value="Appointments" style="swimlane;fontStyle=1;align=center;verticalAlign=top;childLayout=stackLayout;horizontal=1;startSize=26;horizontalStack=0;resizeParent=1;resizeParentMax=0;resizeLast=0;collapsible=1;marginBottom=0;whiteSpace=wrap;html=1;" parent="WIyWlLk6GJQsqaUBKTNV-1" vertex="1">
          <mxGeometry x="690" y="50" width="240" height="160" as="geometry" />
        </mxCell>
        <mxCell id="JFg_Z9QKX0pmDsPN8sRP-17" value="&lt;p dir=&quot;ltr&quot;&gt;+ Date: date&lt;/p&gt;&lt;p&gt;&lt;span style=&quot;color: rgb(0, 0, 29); font-size: 10pt; font-family: noto_regular&quot;&gt;- Time : time&lt;/span&gt;&lt;/p&gt;" style="text;strokeColor=none;fillColor=none;align=left;verticalAlign=top;spacingLeft=4;spacingRight=4;overflow=hidden;rotatable=0;points=[[0,0.5],[1,0.5]];portConstraint=eastwest;whiteSpace=wrap;html=1;" parent="JFg_Z9QKX0pmDsPN8sRP-16" vertex="1">
          <mxGeometry y="26" width="240" height="74" as="geometry" />
        </mxCell>
        <mxCell id="JFg_Z9QKX0pmDsPN8sRP-18" value="" style="line;strokeWidth=1;fillColor=none;align=left;verticalAlign=middle;spacingTop=-1;spacingLeft=3;spacingRight=3;rotatable=0;labelPosition=right;points=[];portConstraint=eastwest;strokeColor=inherit;" parent="JFg_Z9QKX0pmDsPN8sRP-16" vertex="1">
          <mxGeometry y="100" width="240" height="8" as="geometry" />
        </mxCell>
        <mxCell id="JFg_Z9QKX0pmDsPN8sRP-19" value="&lt;p data-pm-slice=&quot;1 1 [&amp;quot;tiptapChildEditor&amp;quot;,{&amp;quot;id&amp;quot;:&amp;quot;7b0293be-7391-484d-9000-76150fa5221f&amp;quot;,&amp;quot;shapeId&amp;quot;:&amp;quot;D4BE0lapv9o&amp;quot;,&amp;quot;textId&amp;quot;:&amp;quot;functionSectionText&amp;quot;},&amp;quot;bulletList&amp;quot;,{&amp;quot;dir&amp;quot;:null},&amp;quot;listItem&amp;quot;,{}]&quot;&gt;emailSend(userId int, adminId int): String&lt;/p&gt;" style="text;strokeColor=none;fillColor=none;align=left;verticalAlign=top;spacingLeft=4;spacingRight=4;overflow=hidden;rotatable=0;points=[[0,0.5],[1,0.5]];portConstraint=eastwest;whiteSpace=wrap;html=1;" parent="JFg_Z9QKX0pmDsPN8sRP-16" vertex="1">
          <mxGeometry y="108" width="240" height="52" as="geometry" />
        </mxCell>
        <mxCell id="JFg_Z9QKX0pmDsPN8sRP-21" value="userController" style="swimlane;fontStyle=1;align=center;verticalAlign=top;childLayout=stackLayout;horizontal=1;startSize=26;horizontalStack=0;resizeParent=1;resizeParentMax=0;resizeLast=0;collapsible=1;marginBottom=0;whiteSpace=wrap;html=1;" parent="WIyWlLk6GJQsqaUBKTNV-1" vertex="1">
          <mxGeometry x="210" y="-36" width="280" height="184" as="geometry" />
        </mxCell>
        <mxCell id="JFg_Z9QKX0pmDsPN8sRP-23" value="" style="line;strokeWidth=1;fillColor=none;align=left;verticalAlign=middle;spacingTop=-1;spacingLeft=3;spacingRight=3;rotatable=0;labelPosition=right;points=[];portConstraint=eastwest;strokeColor=inherit;" parent="JFg_Z9QKX0pmDsPN8sRP-21" vertex="1">
          <mxGeometry y="26" width="280" height="8" as="geometry" />
        </mxCell>
        <mxCell id="JFg_Z9QKX0pmDsPN8sRP-24" value="&lt;p&gt;-  create_user(user): Boolean&lt;/p&gt;&lt;p&gt;&lt;span style=&quot;color: rgb(0, 0, 29); font-size: 10pt; font-family: noto_regular&quot;&gt;+ update_user(user): Boolean&lt;/span&gt;&lt;/p&gt;&lt;p&gt;&lt;span style=&quot;color: rgb(0, 0, 29); font-size: 10pt; font-family: noto_regular&quot;&gt;+ delete_user(user): Boolean&lt;/span&gt;&lt;/p&gt;" style="text;strokeColor=none;fillColor=none;align=left;verticalAlign=top;spacingLeft=4;spacingRight=4;overflow=hidden;rotatable=0;points=[[0,0.5],[1,0.5]];portConstraint=eastwest;whiteSpace=wrap;html=1;" parent="JFg_Z9QKX0pmDsPN8sRP-21" vertex="1">
          <mxGeometry y="34" width="280" height="150" as="geometry" />
        </mxCell>
        <mxCell id="JFg_Z9QKX0pmDsPN8sRP-25" value="dispatch" style="html=1;verticalAlign=bottom;startArrow=oval;startFill=1;endArrow=block;startSize=8;curved=0;rounded=0;" parent="WIyWlLk6GJQsqaUBKTNV-1" source="JFg_Z9QKX0pmDsPN8sRP-21" target="JFg_Z9QKX0pmDsPN8sRP-0" edge="1">
          <mxGeometry width="60" relative="1" as="geometry">
            <mxPoint x="540" y="110" as="sourcePoint" />
            <mxPoint x="600" y="110" as="targetPoint" />
          </mxGeometry>
        </mxCell>
        <mxCell id="JFg_Z9QKX0pmDsPN8sRP-32" value="DBconnection" style="swimlane;fontStyle=1;align=center;verticalAlign=top;childLayout=stackLayout;horizontal=1;startSize=26;horizontalStack=0;resizeParent=1;resizeParentMax=0;resizeLast=0;collapsible=1;marginBottom=0;whiteSpace=wrap;html=1;" parent="WIyWlLk6GJQsqaUBKTNV-1" vertex="1">
          <mxGeometry x="-310" y="310" width="160" height="130" as="geometry" />
        </mxCell>
        <mxCell id="JFg_Z9QKX0pmDsPN8sRP-33" value="&lt;p data-pm-slice=&quot;1 1 [&amp;quot;tiptapChildEditor&amp;quot;,{&amp;quot;id&amp;quot;:&amp;quot;c9bf8ef1-cc7f-48be-b818-1c12c58a85af&amp;quot;,&amp;quot;shapeId&amp;quot;:&amp;quot;abP6FwlQP2a&amp;quot;,&amp;quot;textId&amp;quot;:&amp;quot;attributeSectionText&amp;quot;}]&quot;&gt;Connection: String&lt;/p&gt;" style="text;strokeColor=none;fillColor=none;align=left;verticalAlign=top;spacingLeft=4;spacingRight=4;overflow=hidden;rotatable=0;points=[[0,0.5],[1,0.5]];portConstraint=eastwest;whiteSpace=wrap;html=1;" parent="JFg_Z9QKX0pmDsPN8sRP-32" vertex="1">
          <mxGeometry y="26" width="160" height="44" as="geometry" />
        </mxCell>
        <mxCell id="JFg_Z9QKX0pmDsPN8sRP-34" value="" style="line;strokeWidth=1;fillColor=none;align=left;verticalAlign=middle;spacingTop=-1;spacingLeft=3;spacingRight=3;rotatable=0;labelPosition=right;points=[];portConstraint=eastwest;strokeColor=inherit;" parent="JFg_Z9QKX0pmDsPN8sRP-32" vertex="1">
          <mxGeometry y="70" width="160" height="8" as="geometry" />
        </mxCell>
        <mxCell id="JFg_Z9QKX0pmDsPN8sRP-35" value="&lt;p data-pm-slice=&quot;1 1 [&amp;quot;tiptapChildEditor&amp;quot;,{&amp;quot;id&amp;quot;:&amp;quot;730383d2-31f5-4144-9543-b758855d069b&amp;quot;,&amp;quot;shapeId&amp;quot;:&amp;quot;abP6FwlQP2a&amp;quot;,&amp;quot;textId&amp;quot;:&amp;quot;functionSectionText&amp;quot;}]&quot;&gt;-  &lt;span style=&quot;color: #4b4b4b; font-size: 10pt; font-family: noto_regular&quot;&gt;conn(url)&lt;/span&gt;&lt;/p&gt;" style="text;strokeColor=none;fillColor=none;align=left;verticalAlign=top;spacingLeft=4;spacingRight=4;overflow=hidden;rotatable=0;points=[[0,0.5],[1,0.5]];portConstraint=eastwest;whiteSpace=wrap;html=1;" parent="JFg_Z9QKX0pmDsPN8sRP-32" vertex="1">
          <mxGeometry y="78" width="160" height="52" as="geometry" />
        </mxCell>
        <mxCell id="JFg_Z9QKX0pmDsPN8sRP-36" value="dispatch" style="html=1;verticalAlign=bottom;endArrow=block;curved=0;rounded=0;" parent="WIyWlLk6GJQsqaUBKTNV-1" source="JFg_Z9QKX0pmDsPN8sRP-32" target="JFg_Z9QKX0pmDsPN8sRP-21" edge="1">
          <mxGeometry width="80" relative="1" as="geometry">
            <mxPoint x="520" y="460" as="sourcePoint" />
            <mxPoint x="600" y="460" as="targetPoint" />
          </mxGeometry>
        </mxCell>
        <mxCell id="JFg_Z9QKX0pmDsPN8sRP-37" value="LessonController" style="swimlane;fontStyle=1;align=center;verticalAlign=top;childLayout=stackLayout;horizontal=1;startSize=26;horizontalStack=0;resizeParent=1;resizeParentMax=0;resizeLast=0;collapsible=1;marginBottom=0;whiteSpace=wrap;html=1;" parent="WIyWlLk6GJQsqaUBKTNV-1" vertex="1">
          <mxGeometry x="10" y="730" width="230" height="150" as="geometry" />
        </mxCell>
        <mxCell id="JFg_Z9QKX0pmDsPN8sRP-39" value="" style="line;strokeWidth=1;fillColor=none;align=left;verticalAlign=middle;spacingTop=-1;spacingLeft=3;spacingRight=3;rotatable=0;labelPosition=right;points=[];portConstraint=eastwest;strokeColor=inherit;" parent="JFg_Z9QKX0pmDsPN8sRP-37" vertex="1">
          <mxGeometry y="26" width="230" height="8" as="geometry" />
        </mxCell>
        <mxCell id="JFg_Z9QKX0pmDsPN8sRP-40" value="&lt;p style=&quot;text-align: left&quot;&gt;- create_lesson(leckeID): Boolean&lt;/p&gt;&lt;p style=&quot;text-align: left&quot;&gt;&lt;span style=&quot;color: rgb(0, 0, 29); font-size: 10pt; font-family: noto_regular&quot;&gt;+ update_lesson(leckeID): Boolean&lt;/span&gt;&lt;/p&gt;&lt;p data-pm-slice=&quot;1 1 [&amp;quot;tiptapChildEditor&amp;quot;,{&amp;quot;id&amp;quot;:&amp;quot;730383d2-31f5-4144-9543-b758855d069b&amp;quot;,&amp;quot;shapeId&amp;quot;:&amp;quot;abP6FwlQP2a&amp;quot;,&amp;quot;textId&amp;quot;:&amp;quot;functionSectionText&amp;quot;}]&quot;&gt;&lt;/p&gt;&lt;p style=&quot;text-align: left&quot;&gt;&lt;span style=&quot;color: rgb(0, 0, 29); font-size: 10pt; font-family: noto_regular&quot;&gt;+ delete_lesson(leckeID): Boolean&lt;/span&gt;&lt;/p&gt;" style="text;strokeColor=none;fillColor=none;align=left;verticalAlign=top;spacingLeft=4;spacingRight=4;overflow=hidden;rotatable=0;points=[[0,0.5],[1,0.5]];portConstraint=eastwest;whiteSpace=wrap;html=1;" parent="JFg_Z9QKX0pmDsPN8sRP-37" vertex="1">
          <mxGeometry y="34" width="230" height="116" as="geometry" />
        </mxCell>
        <mxCell id="JFg_Z9QKX0pmDsPN8sRP-42" value="dispatch" style="html=1;verticalAlign=bottom;startArrow=oval;startFill=1;endArrow=block;startSize=8;curved=0;rounded=0;" parent="WIyWlLk6GJQsqaUBKTNV-1" source="JFg_Z9QKX0pmDsPN8sRP-32" target="JFg_Z9QKX0pmDsPN8sRP-37" edge="1">
          <mxGeometry width="60" relative="1" as="geometry">
            <mxPoint x="120" y="850" as="sourcePoint" />
            <mxPoint x="180" y="850" as="targetPoint" />
          </mxGeometry>
        </mxCell>
        <mxCell id="JFg_Z9QKX0pmDsPN8sRP-43" value="dispatch" style="html=1;verticalAlign=bottom;startArrow=oval;startFill=1;endArrow=block;startSize=8;curved=0;rounded=0;" parent="WIyWlLk6GJQsqaUBKTNV-1" source="JFg_Z9QKX0pmDsPN8sRP-37" target="JFg_Z9QKX0pmDsPN8sRP-8" edge="1">
          <mxGeometry width="60" relative="1" as="geometry">
            <mxPoint x="120" y="850" as="sourcePoint" />
            <mxPoint x="180" y="850" as="targetPoint" />
          </mxGeometry>
        </mxCell>
        <mxCell id="JFg_Z9QKX0pmDsPN8sRP-45" value="ArticleController" style="swimlane;fontStyle=1;align=center;verticalAlign=top;childLayout=stackLayout;horizontal=1;startSize=26;horizontalStack=0;resizeParent=1;resizeParentMax=0;resizeLast=0;collapsible=1;marginBottom=0;whiteSpace=wrap;html=1;" parent="WIyWlLk6GJQsqaUBKTNV-1" vertex="1">
          <mxGeometry x="-270" y="1040" width="230" height="150" as="geometry" />
        </mxCell>
        <mxCell id="JFg_Z9QKX0pmDsPN8sRP-46" value="" style="line;strokeWidth=1;fillColor=none;align=left;verticalAlign=middle;spacingTop=-1;spacingLeft=3;spacingRight=3;rotatable=0;labelPosition=right;points=[];portConstraint=eastwest;strokeColor=inherit;" parent="JFg_Z9QKX0pmDsPN8sRP-45" vertex="1">
          <mxGeometry y="26" width="230" height="8" as="geometry" />
        </mxCell>
        <mxCell id="JFg_Z9QKX0pmDsPN8sRP-47" value="&lt;p style=&quot;text-align: left&quot;&gt;- create_article(cikkID): Boolean&lt;/p&gt;&lt;p style=&quot;text-align: left&quot;&gt;&lt;span style=&quot;color: rgb(0, 0, 29); font-size: 10pt; font-family: noto_regular&quot;&gt;+ update_article(cikkID): Boolean&lt;/span&gt;&lt;/p&gt;&lt;p style=&quot;text-align: left&quot;&gt;&lt;/p&gt;&lt;p style=&quot;text-align: left&quot;&gt;&lt;span style=&quot;color: rgb(0, 0, 29); font-size: 10pt; font-family: noto_regular&quot;&gt;+ delete_article(cikkID): Boolean&lt;/span&gt;&lt;/p&gt;" style="text;strokeColor=none;fillColor=none;align=left;verticalAlign=top;spacingLeft=4;spacingRight=4;overflow=hidden;rotatable=0;points=[[0,0.5],[1,0.5]];portConstraint=eastwest;whiteSpace=wrap;html=1;" parent="JFg_Z9QKX0pmDsPN8sRP-45" vertex="1">
          <mxGeometry y="34" width="230" height="116" as="geometry" />
        </mxCell>
        <mxCell id="JFg_Z9QKX0pmDsPN8sRP-48" value="dispatch" style="html=1;verticalAlign=bottom;startArrow=circle;startFill=1;endArrow=open;startSize=6;endSize=8;curved=0;rounded=0;" parent="WIyWlLk6GJQsqaUBKTNV-1" source="JFg_Z9QKX0pmDsPN8sRP-32" target="JFg_Z9QKX0pmDsPN8sRP-45" edge="1">
          <mxGeometry width="80" relative="1" as="geometry">
            <mxPoint x="110" y="850" as="sourcePoint" />
            <mxPoint x="190" y="850" as="targetPoint" />
          </mxGeometry>
        </mxCell>
        <mxCell id="JFg_Z9QKX0pmDsPN8sRP-49" value="dispatch" style="html=1;verticalAlign=bottom;startArrow=circle;startFill=1;endArrow=open;startSize=6;endSize=8;curved=0;rounded=0;" parent="WIyWlLk6GJQsqaUBKTNV-1" source="JFg_Z9QKX0pmDsPN8sRP-45" target="zkfFHV4jXpPFQw0GAbJ--17" edge="1">
          <mxGeometry width="80" relative="1" as="geometry">
            <mxPoint x="110" y="850" as="sourcePoint" />
            <mxPoint x="190" y="850" as="targetPoint" />
            <Array as="points">
              <mxPoint x="1080" y="1110" />
            </Array>
          </mxGeometry>
        </mxCell>
      </root>
    </mxGraphModel>
  </diagram>
</mxfile>
